<?xml version="1.0" encoding="utf-8"?>
<!-- Generator: Adobe Illustrator 19.1.0, SVG Export Plug-In . SVG Version: 6.00 Build 0)  -->
<!DOCTYPE svg PUBLIC "-//W3C//DTD SVG 1.1//EN" "http://www.w3.org/Graphics/SVG/1.1/DTD/svg11.dtd">
<svg version="1.1" id="Layer_1" xmlns="http://www.w3.org/2000/svg" xmlns:xlink="http://www.w3.org/1999/xlink" x="0px" y="0px"
	 viewBox="-50 101 509.7 591" style="enable-background:new -50 101 509.7 591;" xml:space="preserve">
<style type="text/css">
	.st0{fill:#FFFFFF;}
	.st1{fill:#E75300;}
</style>
<g>
	<path class="st0" d="M205.6,232.9c-40.5,0-77.1,9.9-108.3,27c-3.3-5.7-6.9-11.4-11.2-16.9c12.2-2.8,31.6-8.7,61.8-20.6
		c63.7-25.1,40.1-84.3,22.2-112c-57.6,31.9-68.4,53.1-95.7,119.5c-11-10.7-25.2-20.6-44.5-28.9c-6.6-2.8-14.2,0.2-17,6.7
		c-2.8,6.6,0.2,14.2,6.7,17c28.5,12.3,43.5,27.5,55.6,48.9C17.5,315-17,383.5-17,457.7v1.2c0,119.9,88.9,223.7,221.2,223.7
		s222.5-105,222.5-225v-1.2C426.8,336.7,338,232.9,205.6,232.9z"/>
	<g>
		<path class="st1" d="M11.2,455.8v-0.1c0-10,7.5-18.2,18.4-18.2c6.6,0,10.6,2.2,13.9,5.4l-4.9,5.7c-2.7-2.5-5.5-4-9-4
			c-5.9,0-10.2,4.9-10.2,11v0.1c0,6,4.2,11.1,10.2,11.1c4,0,6.5-1.6,9.3-4.1l4.9,5c-3.6,3.9-7.6,6.3-14.4,6.3
			C18.9,473.9,11.2,465.9,11.2,455.8z"/>
		<path class="st1" d="M47.3,455.8v-0.1c0-10,7.9-18.2,18.8-18.2s18.7,8.1,18.7,18.1v0.1c0,10-7.9,18.2-18.8,18.2
			C55.1,473.9,47.3,465.8,47.3,455.8z M76.7,455.8v-0.1c0-6-4.4-11.1-10.7-11.1c-6.2,0-10.6,4.9-10.6,11v0.1c0,6,4.4,11.1,10.7,11.1
			S76.7,461.8,76.7,455.8z"/>
		<path class="st1" d="M91.7,438.1h8.4l9.3,14.9l9.3-14.9h8.4v35.2h-7.7v-23l-9.9,15h-0.2l-9.8-14.9v22.8h-7.6v-35.1H91.7z"/>
		<path class="st1" d="M135.7,438.1h7.8v35.2h-7.8V438.1z"/>
		<path class="st1" d="M152.3,438.1h7.1l16.5,21.7v-21.7h7.6v35.2h-6.6l-17-22.4v22.4h-7.6V438.1z"/>
		<path class="st1" d="M190.5,455.8v-0.1c0-10,7.8-18.2,18.5-18.2c6.3,0,10.2,1.7,13.8,4.8l-4.9,5.9c-2.7-2.3-5.1-3.6-9.2-3.6
			c-5.6,0-10.1,5-10.1,11v0.1c0,6.4,4.4,11.2,10.7,11.2c2.8,0,5.3-0.7,7.3-2.1v-5h-7.8v-6.7h15.3v15.3c-3.6,3.1-8.6,5.6-15,5.6
			C198,473.9,190.5,466.2,190.5,455.8z"/>
		<path class="st1" d="M244.2,468.2l4.6-5.5c3.2,2.6,6.5,4.3,10.5,4.3c3.2,0,5.1-1.3,5.1-3.3v-0.1c0-2-1.2-3-7.1-4.5
			c-7.1-1.8-11.7-3.8-11.7-10.8v-0.1c0-6.4,5.1-10.6,12.3-10.6c5.1,0,9.5,1.6,13.1,4.5l-4,5.8c-3.1-2.2-6.2-3.5-9.2-3.5
			s-4.5,1.4-4.5,3.1v0.1c0,2.3,1.5,3.1,7.6,4.6c7.1,1.9,11.2,4.4,11.2,10.6v0.1c0,7-5.3,10.9-12.9,10.9
			C253.8,473.8,248.4,472,244.2,468.2z"/>
		<path class="st1" d="M277.2,455.8v-0.1c0-10,7.9-18.2,18.8-18.2s18.7,8.1,18.7,18.1v0.1c0,10-7.9,18.2-18.8,18.2
			S277.2,465.8,277.2,455.8z M306.6,455.8v-0.1c0-6-4.4-11.1-10.7-11.1s-10.6,4.9-10.6,11v0.1c0,6,4.4,11.1,10.7,11.1
			S306.6,461.8,306.6,455.8z"/>
		<path class="st1" d="M320,455.8v-0.1c0-10,7.9-18.2,18.8-18.2s18.7,8.1,18.7,18.1v0.1c0,10-7.9,18.2-18.8,18.2
			C327.8,473.9,320,465.8,320,455.8z M349.3,455.8v-0.1c0-6-4.4-11.1-10.7-11.1s-10.6,4.9-10.6,11v0.1c0,6,4.4,11.1,10.7,11.1
			S349.3,461.8,349.3,455.8z"/>
		<path class="st1" d="M364.3,438.1h7.1l16.5,21.7v-21.7h7.6v35.2h-6.6l-17.1-22.4v22.4h-7.6v-35.2H364.3z"/>
	</g>
</g>
</svg>
