<?xml version="1.0" encoding="utf-8"?>
<!-- Generator: Adobe Illustrator 19.2.1, SVG Export Plug-In . SVG Version: 6.00 Build 0)  -->
<svg version="1.1" id="Layer_1" xmlns="http://www.w3.org/2000/svg" xmlns:xlink="http://www.w3.org/1999/xlink" x="0px" y="0px"
	 viewBox="0 0 585.1 198" style="enable-background:new 0 0 585.1 198;" xml:space="preserve">
<style type="text/css">
	.st0{fill:#FFFFFF;}
</style>
<g>
	<path class="st0" d="M52.5,143.5c-0.8-7.8-1.4-15-2.4-22.2c-0.3-2.3-1.8-4.4-2.4-6.6c-0.8-2.7-2.4-5.9-1.6-8.1
		c5.4-14.8,0-28.9-1.4-43.4c-0.3-3.5-0.2-8.1,4.3-10.2c4.1-1.9,7.3-0.6,9.5,2.8c2.9,4.5,6.5,2.4,10,1.4c7.4-2.1,14.9-4.1,22.3-6.3
		c5.4-1.6,10.6-3.5,16-4.9c11.7-3,23.5-5.9,35.3-8.7c14.1-3.3,28.2-6.5,42.3-9.9c2.9-0.7,5.6-2,8.4-3c4.6-1.6,8.6,0.3,11.8,3.1
		c1.4,1.2,1.2,4.5,1.3,6.8c0,0.8-1,2.1-1.8,2.5c-4.9,2.3-8.6,6.1-15.6,4.7c-6-1.2-13,2.3-19.5,3.9c-9,2.3-17.8,5-26.8,7.1
		c-9.4,2.2-19.2,3.2-28.5,5.7c-8.3,2.3-16.3,5.9-24.4,9c-8.5,3.3-17,6.5-25.5,10c-1,0.4-2,2.1-1.9,3.2c0.3,5.8,0.5,11.6,1.7,17.2
		c0.3,1.6,3.7,3.8,5.6,3.7c5.8-0.3,11.7-1.2,17.4-2.5c6-1.3,11.9-3.3,17.9-5c4.2-1.2,8.4-2.2,12.5-3.6c8.9-2.9,17.7-6.2,26.7-9
		c5.6-1.7,11.5-2.6,17.1-4.4c5.1-1.6,9.9-4.1,15.1-5.5c4.8-1.2,10.1-2.2,13.5,2.4c-1.3,3.2-2.4,6.1-3.7,9.3
		c-13.4,4.1-27.8,8.4-42.2,12.9c-5,1.5-10.9,2.2-14.4,5.5c-5.3,4.8-11.8,4.9-17.7,7.2c-8.2,3.2-17,4.8-25.6,6.8
		c-5,1.2-10.2,1.9-15.3,2.7c-5.2,0.8-6.2,2.7-5,8.3c0.9,4,1.2,8.1,1.6,12.2c0.6,5.6,4.5,6.9,9.1,7.1c9.7,0.4,19.2,0.5,28.6-2.8
		c3.8-1.3,8.1-1.1,12.2-1.7c4.2-0.6,8.5-1.3,12.7-2.2c17.9-3.8,35.3-8.7,51.3-18.3c6.9-4.2,14.7-6.9,20.5-12.9
		c7.1-7.5,13.6-15.2,12.1-26.7c-0.2-1.2,0.2-2.6,0.4-4.2c-4-0.3-6.3-2.3-6.8-6.4c-0.6-4.4,1.8-6.9,5.1-8.9c2.7-1.6,3.1-3.8,3-6.7
		c-0.1-2.8-0.2-6.2,1.3-8.3c4.5-6.6,9.3-5.6,14.6,2.7c0.3,0.4,0.5,0.8,1,1.7c7.2-2.6,14.2-5.7,21.6-7.6c10.5-2.7,20.8-7,32.1-6.4
		c6.5,0.4,13.3-0.6,19.6,0.8c7.7,1.6,15.4,4.2,20.2,11.6c3.9,6,2.6,16.6-4.2,21.4c-5,3.6-10.9,5.7-16.4,8.6c-3.8,2-7.4,4.5-11.3,6.3
		c-6.2,2.9-12.5,5.2-19.6,5.9c-7,0.7-13.8,3.1-20.7,4.7c-2.3,0.5-4.7,0.8-8.7,1.5c8.2,4.1,15.1,7.8,22.3,11.2
		c4.7,2.3,9.7,4.1,14.5,6.1c16.7,7,33.6,13.6,51.8,15.5c2,0.2,4.4-0.4,6.2-1.4c4.2-2.2,4.1-2.4,8.7-0.5c0.2,0.3,0.5,0.6,0.5,0.8
		c-0.3,9.5-3.4,11.9-12.9,13.7c-15.1,2.8-28.6-2.3-42.2-6.8c-10.7-3.5-20.9-8.3-31.4-12.5c-7.9-3.2-15.9-6.2-23.7-9.6
		c-2.4-1.1-4.3-3.2-6.4-4.9c-0.5,0.3-1,0.5-1.5,0.8c4.4,13.7,8.8,27.4,13.1,41.1c0.7,2.3,1.7,4.9,1.4,7.2c-0.2,1.3-2.5,2.8-4.1,3.3
		c-3.1,1-6.3,1.3-10.7,2.2c-0.9-2-2.8-5.1-3.7-8.4c-1.8-6.7-2.6-13.7-4.6-20.3c-1.9-6.4-5.5-12.3-4.9-19.4c0.1-1-1.1-2.5-2.1-3.1
		c-0.8-0.5-2.7-0.3-3.4,0.3c-2.6,2.7-4.5,6.4-7.5,8.4c-8,5.3-16.3,10.3-24.9,14.6c-7.6,3.8-15.8,6.5-23.8,9.8
		c-2.1,0.9-3.9,2.6-6.1,3.2c-11.6,3-23.2,5.7-34.9,8.5c-6.6,1.6-13.2,3.3-19.9,4.5c-4.4,0.8-9,0.7-13.4,1.3c-8.6,1.3-8.6,1.4-9,9.1
		c-3.1,1.1-5.6,2.5-8.4,3c-1.6,0.3-3.8-0.3-4.9-1.3c-1.2-1.1-2.1-3.3-2-4.9c0.7-7.4-5-8.3-9.7-8.9c-5.6-0.7-5.7-5.5-5.8-8.2
		c-0.1-2.4,3.5-5.2,6-7.4C48.5,143.8,50.7,143.9,52.5,143.5z M230,68.8c0.5,0.7,1,1.4,1.5,2.1c-0.4,1.7-0.5,3.5-1.2,5
		c-1.6,3.5-0.4,7.5,3.4,8.1c4.8,0.8,9.9,1.2,14.8,0.6c13.5-1.7,27-4.2,39.4-9.9c8.5-3.9,16.7-8.6,24.7-13.4c3.7-2.2,3.4-4.3-0.7-5.8
		c-4.3-1.6-8.8-2.9-13.3-3.5c-4.7-0.7-9.8-1.4-14.4-0.5c-9.1,1.6-18.2,3.8-27,6.6C247.9,61.1,239,65.2,230,68.8z"/>
	<path class="st0" d="M541.6,119c1.2-0.2,3.1-0.2,3.3-0.7c1.1-3.1,3.8-3.9,5.8-2.6c1.9,1.2,3.6,4.1,3.8,6.3c0.6,7-2.7,12.2-8.1,16.8
		c-11.3,9.6-25,13.4-39.1,16c-6.5,1.2-13,1.9-19.6,2.2c-9.6,0.5-19.5,2-28.8,0.4c-14.3-2.6-29.6-4-39.5-17.3
		c-7.3-9.9-10-20.8-10-33.3c-0.1-11,2.9-21.3,5.7-31.3c3.5-12.5,7.1-26.6,20.1-33.8c4.8-2.7,10.5-3.8,15.9-5.4
		c2-0.6,4.2-0.5,6.2-0.8c8.8-1.5,16.2,2.2,22.4,7.6c5.1,4.4,6.9,10.6,5.8,17.5c-0.4,2.7-0.7,5.8,0.1,8.3c1.4,4.6-0.4,8.2-3.5,10.5
		c-1.9,1.4-6.4,1.9-8.1,0.7c-3.7-2.7-5-7.5-3.7-12c1.5-5.4,0.8-10.3-2.1-14.9c-0.8-1.3-2.9-2.5-4.5-2.6c-9.5-1-21.3,1.2-27.9,12.1
		c-7.3,12-7.8,24.9-10.7,37.6c-2.2,9.7,1,17.9,5,26c1,2,2.2,4.5,4,5.3c4.8,2.2,9,5.6,14.8,5.9c5.7,0.3,11.2,3.7,16.8,3.9
		c22.5,0.8,44.9-0.5,65.6-10.9c3.6-1.8,6.7-4.7,9.7-7.4C541.8,122.6,541.4,120.7,541.6,119z"/>
	<path class="st0" d="M385.3,109.2c1.3-15.3-1.8-30.9,3.3-45.8c0.1-0.4-0.4-0.9-0.4-1.4c-0.3-6.3-0.8-12.6-0.7-18.9
		c0-3.6-2.7-8.8-6.2-10.4c-4.1-1.8-6.5,1.2-8.1,3.9c-1.4,2.3-1.8,5.5-1.8,8.3c-0.2,8,0.3,16.1-0.1,24.1c-0.4,9.8-1.6,19.5-2,29.3
		c-0.4,8.8,1,17.9-0.9,26.3c-1.5,6.7,1,11,3.9,15.8c0.6,1.1,2.1,2.2,3.3,2.4c8.7,1.4,13.4-4,11.2-12.4L385.3,109.2z"/>
</g>
</svg>
