<?xml version="1.0" encoding="utf-8"?>
<!-- Generator: Adobe Illustrator 20.0.0, SVG Export Plug-In . SVG Version: 6.00 Build 0)  -->
<!DOCTYPE svg PUBLIC "-//W3C//DTD SVG 1.1//EN" "http://www.w3.org/Graphics/SVG/1.1/DTD/svg11.dtd">
<svg version="1.1" xmlns="http://www.w3.org/2000/svg" xmlns:xlink="http://www.w3.org/1999/xlink" x="0px" y="0px"
	 viewBox="0 0 800 800" style="enable-background:new 0 0 800 800;" xml:space="preserve">
<style type="text/css">
	.st0{fill:#FFFFFF;}
</style>
<g id="Layer_1">
	<g>
		<path class="st0" d="M400,30c50,0,98.4,9.8,144,29.1c44.1,18.6,83.6,45.3,117.6,79.3s60.7,73.6,79.3,117.6
			c19.3,45.6,29.1,94,29.1,144s-9.8,98.4-29.1,144c-18.6,44.1-45.3,83.6-79.3,117.6s-73.6,60.7-117.6,79.3
			c-45.6,19.3-94,29.1-144,29.1s-98.4-9.8-144-29.1c-44.1-18.6-83.6-45.3-117.6-79.3S77.7,588.1,59.1,544C39.8,498.4,30,450,30,400
			s9.8-98.4,29.1-144c18.6-44.1,45.3-83.6,79.3-117.6S211.9,77.7,256,59.1C301.6,39.8,350,30,400,30 M400,0C179.1,0,0,179.1,0,400
			s179.1,400,400,400s400-179.1,400-400S620.9,0,400,0L400,0z"/>
	</g>
</g>
<g id="Layer_3">
	<g>
		<polygon class="st0" points="235.6,262.5 369.7,396.5 396.5,369.7 262.5,235.6 270.5,219.1 195.4,169 169,195.4 219.1,270.5 		"/>
		<path class="st0" d="M486.8,424.6c-9.7-9.7-26.1-9.2-35.3,0l-14-14l-26.9,26.9l14,14c-9.2,9.2-9.8,25.6,0,35.3l144,144
			c9.7,9.7,26.2,9.9,35.9,0.2l26.5-26.5c9.7-9.7,9.6-26.2-0.2-35.9L486.8,424.6z M582.8,621.7c-1.4,1.4-3.6,1.4-4.9,0L434.3,478.1
			c-1.4-1.4-1.4-3.6,0-4.9s3.6-1.4,4.9,0l143.5,143.5C584.2,618.1,584.2,620.3,582.8,621.7z"/>
	</g>
	<path class="st0" d="M382.6,451.5l189-189l16.5,8l50.1-75.1L611.8,169l-75.1,50.1l8,16.5l-189,189c-9.2-9.2-25.6-9.8-35.3,0
		l-144,144c-9.7,9.7-9.9,26.2-0.2,35.9l26.5,26.5c9.7,9.7,26.2,9.6,35.9-0.2l144-144C392.4,477.1,391.8,460.7,382.6,451.5z
		 M190.5,582.8c-1.4,1.4-3.6,1.4-4.9,0l0,0c-1.4-1.4-1.4-3.6,0-4.9l143.5-143.5c1.4-1.4,3.6-1.4,4.9,0l0,0c1.4,1.4,1.4,3.6,0,4.9
		L190.5,582.8z"/>
</g>
</svg>
